<?xml version="1.0" standalone="no"?>
<!DOCTYPE svg PUBLIC "-//W3C//DTD SVG 1.1//EN" "http://www.w3.org/Graphics/SVG/1.1/DTD/svg11.dtd" >
<svg xmlns="http://www.w3.org/2000/svg">
<metadata></metadata>
<defs>
<font id="kravitz_extra_thermalregular" horiz-adv-x="1386" >
<font-face units-per-em="2048" ascent="1638" descent="-410" />
<missing-glyph horiz-adv-x="677" />
<glyph horiz-adv-x="2048" />
<glyph horiz-adv-x="2048" />
<glyph unicode="&#xd;" horiz-adv-x="0" />
<glyph unicode=" "  horiz-adv-x="677" />
<glyph unicode="&#x09;" horiz-adv-x="677" />
<glyph unicode="&#xa0;" horiz-adv-x="677" />
<glyph unicode="!" horiz-adv-x="362" d="M98 121q0 55 39 94t94 39t93 -39t38 -94t-37.5 -94t-93.5 -39q-55 0 -94 39t-39 94zM113 317v959h235v-959h-235z" />
<glyph unicode="&#x22;" horiz-adv-x="630" d="M98 633v268q45 43 49 121q-37 43 -36 98q0 66 45 111t110 45q59 0 105 -43q45 43 106 43q63 0 108.5 -46.5t45.5 -109.5q0 -57 -39 -102q-4 -125 -90 -225q-57 -66 -193 -160v184q-66 -82 -211 -184z" />
<glyph unicode="$" horiz-adv-x="960" d="M98 618h224q-160 66 -160 250q0 68 41 138q59 100 184 133v141h283v-143q231 -72 231 -346h-229q0 70 -17 92q-29 41 -131 41q-129 0 -129 -56q0 -37 111 -67q70 -16 139 -31q152 -41 223 -102q93 -80 93 -219q0 -262 -291 -330v-135h-283v141q-289 76 -289 493zM332 616 q0 -150 35 -204q45 -74 180 -74q180 0 180 111q0 47 -68 75q-123 33 -327 92z" />
<glyph unicode="%" horiz-adv-x="1325" d="M98 924q0 158 92.5 259t249.5 101q141 0 233.5 -81t112.5 -222l226 336h278l-395 -588q39 8 82 8q160 0 254 -99t94 -259q0 -158 -95 -257t-253 -99q-147 0 -239.5 89t-102.5 234l-240 -358h-278l395 585q-35 -6 -72 -6q-154 0 -248 100.5t-94 256.5zM330 924 q0 -125 110 -125q117 0 117 125q0 129 -117 129q-111 0 -110 -129zM866 377q0 -125 111 -125q117 0 117 125q0 131 -117 131q-111 0 -111 -131z" />
<glyph unicode="&#x26;" horiz-adv-x="2037" d="M98 162v203h1925v-203h-1925zM102 754q0 133 94.5 227t227.5 94q115 0 205 -74v74h116v-643h-116v72q-90 -72 -205 -72q-133 0 -227.5 94.5t-94.5 227.5zM221 754q0 -84 59.5 -144.5t143.5 -60.5t144.5 60.5t60.5 144.5t-60.5 143t-144.5 59t-143.5 -59t-59.5 -143z M795 434v643h118v-53q72 51 160 51q115 0 196 -81t81 -195v-365h-119v365q0 66 -46 112.5t-112 46.5q-68 0 -114 -46t-46 -113v-365h-118zM1393 428v647l61 -2h262q133 0 227.5 -94t94.5 -227q0 -135 -93.5 -228.5t-228.5 -93.5zM1511 547h205q84 0 143.5 60.5t59.5 144.5 t-59.5 144t-143.5 60h-205v-409z" />
<glyph unicode="'" horiz-adv-x="419" d="M98 633v268q45 43 49 121q-37 43 -36 98q0 66 45 111t110 45q63 0 108.5 -46.5t45.5 -109.5q0 -57 -39 -102q-4 -125 -90 -225q-57 -66 -193 -160z" />
<glyph unicode="(" horiz-adv-x="638" d="M98 680q0 504 277 1018h262q-303 -563 -303 -1018q0 -479 305 -1038h-264q-143 276 -205 501q-72 254 -72 537z" />
<glyph unicode=")" horiz-adv-x="641" d="M98 1698h264q141 -274 205 -502q74 -258 74 -537q0 -504 -279 -1017h-262q305 563 306 1017q0 479 -308 1039z" />
<glyph unicode="*" horiz-adv-x="921" d="M98 874l70 226l225 -78v250h236v-252l245 82l48 -232l-220 -71l148 -193l-188 -141l-154 199l-156 -193l-186 152l151 178z" />
<glyph unicode="+" horiz-adv-x="1325" d="M98 504v235h496v498h235v-498h496v-235h-496v-498h-235v498h-496z" />
<glyph unicode="," horiz-adv-x="419" d="M98 -59q45 43 49 120q-37 43 -36 99q0 66 45 110.5t110 44.5q63 0 108.5 -46t45.5 -109q0 -57 -39 -103q-4 -125 -90 -225q-57 -66 -193 -160v269z" />
<glyph unicode="-" horiz-adv-x="651" d="M98 535v235h553v-235h-553z" />
<glyph unicode="." horiz-adv-x="407" d="M98 160q0 66 45 110.5t111 44.5q63 0 108.5 -46t45.5 -109t-45.5 -108.5t-108.5 -45.5q-66 0 -111 44t-45 110z" />
<glyph unicode="/" horiz-adv-x="1107" d="M98 -31l756 1729h254l-756 -1729h-254z" />
<glyph unicode="0" d="M98 629q0 268 188.5 456.5t456.5 188.5t455.5 -188.5t187.5 -456.5t-187 -456.5t-456 -188.5q-268 0 -456.5 188t-188.5 457zM334 629q0 -172 118.5 -290t290.5 -118q170 0 289 119t119 289t-119 289.5t-289 119.5q-172 0 -290.5 -118.5t-118.5 -290.5z" />
<glyph unicode="1" horiz-adv-x="708" d="M98 750v239q154 53 242 113q78 53 182 174h187v-1270h-236v899q-127 -86 -375 -155z" />
<glyph unicode="2" horiz-adv-x="1028" d="M98 -14q-4 229 101 362q57 74 282 230q152 104 199 151q86 84 86 170q0 160 -201 160q-137 0 -186 -111q-31 -72 -31 -233h-233q4 578 450 577q186 0 310 -104.5t124 -288.5q0 -160 -110 -289q-74 -86 -246 -202q-190 -129 -250 -189h635v-233h-930z" />
<glyph unicode="3" horiz-adv-x="1056" d="M98 502q0 33 2 65h234q-2 -37 -2 -67q0 -141 57 -207q61 -72 199 -72q96 0 160 41q76 49 75 139q0 162 -211 162h-178v232h178q193 0 191 131q0 129 -207 129q-143 0 -199 -88q-41 -70 -39 -228h-233q-4 254 106 394q119 154 365 153q184 0 305 -86q135 -96 135 -274 q0 -150 -96 -244q117 -105 117 -281q0 -190 -142 -305q-133 -109 -327 -108q-236 0 -363 137t-127 377z" />
<glyph unicode="4" horiz-adv-x="1079" d="M98 268v170l592 834h193v-770h196v-234h-196v-282h-234v282h-551zM424 502h225v315z" />
<glyph unicode="5" horiz-adv-x="1044" d="M98 436h232q27 -217 239 -217q115 0 178.5 63.5t63.5 178.5q0 109 -66.5 173t-175.5 64q-156 0 -245 -163h-224l160 737h739v-232h-550l-29 -131q70 20 149 21q207 0 341 -131t134 -338q0 -211 -132 -342t-343 -131q-209 0 -330.5 118.5t-140.5 329.5z" />
<glyph unicode="6" horiz-adv-x="1062" d="M98 606q0 258 99 436q131 240 411 240q315 0 420 -330l-244 -4q-59 102 -178 103q-168 0 -235 -183q102 51 217 52q195 0 335 -135t140 -330q0 -197 -139.5 -332t-335.5 -135q-119 0 -227.5 57t-174.5 156q-88 133 -88 405zM344 455q0 -100 71.5 -167t172.5 -67 q98 0 169.5 68t71.5 166t-71.5 165.5t-169.5 67.5q-100 0 -172 -66.5t-72 -166.5z" />
<glyph unicode="7" horiz-adv-x="993" d="M98 1042v234h895v-184q-256 -256 -364 -484q-127 -264 -127 -620h-232q-6 608 359 1054h-531z" />
<glyph unicode="8" horiz-adv-x="1087" d="M98 403q0 190 140 299q-84 88 -84 213q0 184 133 281q117 86 307 86q188 0 307 -86q133 -98 133 -281q0 -123 -86 -213q139 -109 139 -299q0 -203 -149 -315q-135 -100 -344 -100q-211 0 -344 100q-152 113 -152 315zM332 403q0 -182 262 -182t262 182q0 166 -262 166 t-262 -166zM385 915q0 -61 80 -92q57 -23 129 -22q70 0 129 22q78 33 78 92q0 135 -207 136q-209 0 -209 -136z" />
<glyph unicode="9" horiz-adv-x="1062" d="M98 817q0 197 139.5 331t335.5 134q119 0 227.5 -56.5t174.5 -154.5q88 -133 88 -405q0 -258 -98 -437q-133 -242 -412 -241q-315 0 -420 331l244 5q59 -102 178 -103q168 0 233 180q-100 -49 -215 -49q-195 0 -335 135.5t-140 329.5zM332 817q0 -100 70.5 -166.5 t170.5 -66.5t172 66.5t72 166.5t-71.5 167t-172.5 67q-100 0 -170.5 -66.5t-70.5 -167.5z" />
<glyph unicode=":" horiz-adv-x="407" d="M98 244q0 66 45 110.5t111 44.5q63 0 108.5 -46t45.5 -109t-45.5 -108.5t-108.5 -45.5q-66 0 -111 44t-45 110zM98 598q0 66 45 111t111 45q63 0 108.5 -46.5t45.5 -109.5t-45.5 -108.5t-108.5 -45.5q-66 0 -111 44t-45 110z" />
<glyph unicode=";" horiz-adv-x="419" d="M98 -59q45 43 49 120q-37 43 -36 99q0 66 45 110.5t110 44.5q63 0 108.5 -46t45.5 -109q0 -49 -37 -86q-4 -129 -90 -234q-59 -74 -195 -168v269zM111 598q0 66 45 111t110 45q63 0 108.5 -46.5t45.5 -109.5t-45 -108.5t-109 -45.5q-66 0 -110.5 44t-44.5 110z" />
<glyph unicode="&#x3c;" horiz-adv-x="538" d="M133 602v98l406 547v-399l-148 -197l148 -196v-400z" />
<glyph unicode="=" horiz-adv-x="1325" d="M98 305v236h1227v-236h-1227zM98 702v236h1227v-236h-1227z" />
<glyph unicode="&#x3e;" horiz-adv-x="538" d="M133 55v400l146 196l-146 197v399l406 -547v-98z" />
<glyph unicode="?" horiz-adv-x="1011" d="M98 719q0 227 113 383q125 172 344 172q190 0 323.5 -133.5t133.5 -323.5q0 -156 -94.5 -279.5t-243.5 -162.5v-70h-236v291h117q92 0 156.5 64.5t64.5 156.5t-64.5 156.5t-156.5 64.5q-117 0 -174 -106q-47 -86 -47 -213h-236zM424 121q0 55 39 94t94 39t93 -39t38 -94 t-38 -94t-93 -39t-94 39t-39 94z" />
<glyph unicode="@" d="M98 629q0 268 188.5 456.5t456.5 188.5t455.5 -188.5t187.5 -456.5t-187 -456.5t-456 -188.5q-268 0 -456.5 188t-188.5 457zM334 629q0 -172 118.5 -290t290.5 -118q170 0 289 119t119 289q0 182 -137 307v-612h-197v18q-53 -20 -112 -20q-129 0 -218.5 90t-89.5 219 q0 127 90.5 217t217.5 90q59 0 112 -20v22h191q-113 98 -265 98q-172 0 -290.5 -118.5t-118.5 -290.5zM594 631q0 -47 31.5 -80t79.5 -33q47 0 79.5 33t32.5 80t-32.5 78.5t-79.5 31.5q-45 0 -78 -32.5t-33 -77.5z" />
<glyph unicode="A" horiz-adv-x="1384" d="M98 631q0 268 187.5 455.5t455.5 187.5q229 0 408 -148v150h235v-1288h-235v145q-178 -147 -408 -147q-268 0 -455.5 188t-187.5 457zM334 631q0 -170 118.5 -289t288.5 -119t289 119t119 289t-119 288.5t-289 118.5t-288.5 -118.5t-118.5 -288.5z" />
<glyph unicode="B" horiz-adv-x="1214" d="M98 -18v1294l121 -4l617 2q158 0 268 -111.5t110 -269.5q0 -152 -104 -262q104 -108 104 -262q0 -160 -111.5 -272.5t-271.5 -112.5zM334 221h497q61 0 104.5 43.5t43.5 104.5q0 59 -42 102t-101 43h-502v-293zM334 750h502q59 0 101 42t42 101t-42 102t-101 43h-502 v-288z" />
<glyph unicode="C" horiz-adv-x="1341" d="M98 631q0 268 187.5 455.5t455.5 187.5q356 0 598 -387l-200 -125q-172 276 -398 276q-170 0 -288.5 -118.5t-118.5 -288.5t118.5 -289t288.5 -119q229 0 400 279l200 -121q-238 -395 -600 -395q-268 0 -455.5 188t-187.5 457z" />
<glyph unicode="D" d="M98 -18v1294l121 -4l524 2h6q263 0 449 -188q188 -190 188 -457q0 -268 -187 -456.5t-456 -188.5zM334 221h409q170 0 289 119t119 289t-119 289.5t-289 119.5h-409v-817z" />
<glyph unicode="E" d="M98 629q0 268 188.5 456.5t456.5 188.5t455.5 -188.5t187.5 -456.5v-117h-1036q39 -131 147.5 -211t245.5 -80q164 0 293 137l207 -120q-213 -254 -500 -254q-268 0 -456.5 188t-188.5 457zM350 748h785q-39 129 -147.5 209.5t-244.5 80.5q-135 0 -244.5 -80.5 t-148.5 -209.5z" />
<glyph unicode="F" horiz-adv-x="989" d="M98 -12v1288l121 -4l770 2v-236h-655v-286h655v-236h-655v-528h-236z" />
<glyph unicode="G" d="M98 629q0 268 188.5 456.5t456.5 188.5q287 0 500 -252l-205 -125q-131 141 -295 141q-172 0 -290.5 -118.5t-118.5 -290.5t118.5 -290t290.5 -118q135 0 244 81t148 210h-492v236h743v-119q0 -268 -187 -456.5t-456 -188.5q-268 0 -456.5 188t-188.5 457z" />
<glyph unicode="H" horiz-adv-x="1179" d="M98 -12v1288h236v-535h610v535h236v-1288h-236v518h-610v-518h-236z" />
<glyph unicode="I" horiz-adv-x="333" d="M98 -12v1288h236v-1288h-236z" />
<glyph unicode="J" horiz-adv-x="1138" d="M98 602h236q0 -158 61 -258q76 -123 223 -123q119 0 202 83t83 202v770h236v-770q0 -217 -151.5 -369.5t-369.5 -152.5q-246 0 -389 190q-131 174 -131 428z" />
<glyph unicode="K" horiz-adv-x="1179" d="M98 -12v1288h236v-514l514 514h332l-645 -647l639 -641h-332l-473 475l-35 -35v-440h-236z" />
<glyph unicode="L" horiz-adv-x="837" d="M98 -12v1288h236v-1051h504v-237h-740z" />
<glyph unicode="M" d="M98 -12v1288h236v-31q70 29 145 29q152 0 260 -107q111 106 265 107q160 0 271 -111.5t111 -271.5v-903h-235v903q0 61 -43 104t-104 43t-103.5 -42t-42.5 -103v-905h-235v905q0 59 -42 102t-102 43q-61 0 -103 -42t-42 -103v-905h-236z" />
<glyph unicode="N" horiz-adv-x="1206" d="M98 -12v1288h236v-105q143 102 319 103q231 0 392 -162t161 -393v-731h-235v731q0 131 -93.5 225t-224.5 94q-133 0 -226 -93t-93 -226v-731h-236z" />
<glyph unicode="O" d="M98 629q0 268 188.5 456.5t456.5 188.5t455.5 -188.5t187.5 -456.5t-187 -456.5t-456 -188.5q-268 0 -456.5 188t-188.5 457zM334 629q0 -172 118.5 -290t290.5 -118q170 0 289 119t119 289t-119 289.5t-289 119.5q-172 0 -290.5 -118.5t-118.5 -290.5z" />
<glyph unicode="P" horiz-adv-x="1214" d="M98 -12v1288l121 -4l617 2q158 0 268 -111.5t110 -269.5t-110.5 -268.5t-267.5 -110.5h-502v-526h-236zM334 750h502q59 0 101 42t42 101t-42 102t-101 43h-502v-288z" />
<glyph unicode="Q" d="M98 629q0 268 188.5 456.5t456.5 188.5t455.5 -188.5t187.5 -456.5q0 -188 -101 -346t-271 -238v-192h-236v133q-18 -2 -35 -2q-268 0 -456.5 188t-188.5 457zM348 737q211 -27 377 -137q182 -121 254 -305q172 123 172 334q0 170 -119 289.5t-289 119.5 q-139 0 -248.5 -83t-146.5 -218zM354 498q45 -127 150.5 -202t238.5 -75h11q-49 111 -166 187q-102 66 -234 90z" />
<glyph unicode="R" horiz-adv-x="1376" d="M98 -12v1288l121 -4l617 2q158 0 268 -111.5t110 -269.5q0 -154 -104 -263.5t-258 -115.5l524 -526h-332l-524 526h-186v-526h-236zM334 750h502q59 0 101 42t42 101t-42 102t-101 43h-502v-288z" />
<glyph unicode="S" horiz-adv-x="1140" d="M98 584h236q0 -190 59 -269q68 -90 250 -90q102 0 172 35q90 43 90 135q0 78 -92 121q-23 10 -158 45q-258 66 -317 98q-158 86 -158 275q0 109 74 199q115 141 360 141q457 0 457 -508h-235q0 143 -39 201q-46 71 -179 71h-4q-66 0 -120 -20q-78 -29 -78 -84t41 -72 q27 -10 288 -80q188 -49 273 -116q123 -99 123 -271q0 -213 -176 -321q-135 -84 -322 -84q-545 0 -545 594z" />
<glyph unicode="T" horiz-adv-x="970" d="M98 1038v236h873v-236h-326v-1050h-235v1050h-312z" />
<glyph unicode="U" d="M98 629v647h236v-647q0 -172 118.5 -290t290.5 -118q170 0 289 119t119 289v647h235v-1288h-235v143q-178 -147 -408 -147q-268 0 -456.5 188t-188.5 457z" />
<glyph unicode="V" horiz-adv-x="1288" d="M98 1276h260l353 -883l325 883h252l-479 -1288h-184z" />
<glyph unicode="W" horiz-adv-x="1824" d="M98 1276h246l256 -827l256 827h207l256 -830l260 830h246l-410 -1288h-196l-258 829l-261 -829h-200z" />
<glyph unicode="X" horiz-adv-x="1390" d="M98 -12l498 643l-483 645h297l333 -453l342 453h293l-485 -645l498 -643h-297l-351 452l-348 -452h-297z" />
<glyph unicode="Y" horiz-adv-x="1308" d="M98 1276h297l305 -414l314 414h295l-490 -647v-641h-235v643z" />
<glyph unicode="Z" horiz-adv-x="1118" d="M98 -12v184l668 866l-600 2v236l938 -4v-180l-668 -865h682v-239h-1020z" />
<glyph unicode="[" horiz-adv-x="524" d="M98 -358v2056h426v-236h-190v-1585h190v-235h-426z" />
<glyph unicode="\" horiz-adv-x="1107" d="M98 1698h254l756 -1729h-254z" />
<glyph unicode="]" horiz-adv-x="524" d="M98 -123h191v1585h-191v236h426v-2056h-426v235z" />
<glyph unicode="^" horiz-adv-x="954" d="M98 911l348 682h160l348 -682h-260l-168 330l-168 -330h-260z" />
<glyph unicode="_" horiz-adv-x="1316" d="M98 47h1219v-299h-1219v299z" />
<glyph unicode="`" horiz-adv-x="497" d="M-256 1698h334l424 -490h-285z" />
<glyph unicode="a" horiz-adv-x="1384" d="M98 631q0 268 187.5 455.5t455.5 187.5q229 0 408 -148v150h235v-1288h-235v145q-178 -147 -408 -147q-268 0 -455.5 188t-187.5 457zM334 631q0 -170 118.5 -289t288.5 -119t289 119t119 289t-119 288.5t-289 118.5t-288.5 -118.5t-118.5 -288.5z" />
<glyph unicode="b" horiz-adv-x="1214" d="M98 -18v1294l121 -4l617 2q158 0 268 -111.5t110 -269.5q0 -152 -104 -262q104 -108 104 -262q0 -160 -111.5 -272.5t-271.5 -112.5zM334 221h497q61 0 104.5 43.5t43.5 104.5q0 59 -42 102t-101 43h-502v-293zM334 750h502q59 0 101 42t42 101t-42 102t-101 43h-502 v-288z" />
<glyph unicode="c" horiz-adv-x="1341" d="M98 631q0 268 187.5 455.5t455.5 187.5q356 0 598 -387l-200 -125q-172 276 -398 276q-170 0 -288.5 -118.5t-118.5 -288.5t118.5 -289t288.5 -119q229 0 400 279l200 -121q-238 -395 -600 -395q-268 0 -455.5 188t-187.5 457z" />
<glyph unicode="d" d="M98 -18v1294l121 -4l524 2h6q263 0 449 -188q188 -190 188 -457q0 -268 -187 -456.5t-456 -188.5zM334 221h409q170 0 289 119t119 289t-119 289.5t-289 119.5h-409v-817z" />
<glyph unicode="e" d="M98 629q0 268 188.5 456.5t456.5 188.5t455.5 -188.5t187.5 -456.5v-117h-1036q39 -131 147.5 -211t245.5 -80q164 0 293 137l207 -120q-213 -254 -500 -254q-268 0 -456.5 188t-188.5 457zM350 748h785q-39 129 -147.5 209.5t-244.5 80.5q-135 0 -244.5 -80.5 t-148.5 -209.5z" />
<glyph unicode="f" horiz-adv-x="989" d="M98 -12v1288l121 -4l770 2v-236h-655v-286h655v-236h-655v-528h-236z" />
<glyph unicode="g" d="M98 629q0 268 188.5 456.5t456.5 188.5q287 0 500 -252l-205 -125q-131 141 -295 141q-172 0 -290.5 -118.5t-118.5 -290.5t118.5 -290t290.5 -118q135 0 244 81t148 210h-492v236h743v-119q0 -268 -187 -456.5t-456 -188.5q-268 0 -456.5 188t-188.5 457z" />
<glyph unicode="h" horiz-adv-x="1179" d="M98 -12v1288h236v-535h610v535h236v-1288h-236v518h-610v-518h-236z" />
<glyph unicode="i" horiz-adv-x="362" d="M98 1143q0 55 39 94t94 39t93 -39t38 -94t-37.5 -93t-93.5 -38q-55 0 -94 37.5t-39 93.5zM113 -12v960h235v-960h-235z" />
<glyph unicode="j" horiz-adv-x="1138" d="M98 602h236q0 -158 61 -258q76 -123 223 -123q119 0 202 83t83 202v442h236v-442q0 -217 -151.5 -369.5t-369.5 -152.5q-246 0 -389 190q-131 174 -131 428zM874 1143q0 55 39 94t95 39q55 0 93 -39t38 -94t-38 -93t-93 -38t-94.5 37.5t-39.5 93.5z" />
<glyph unicode="k" horiz-adv-x="1179" d="M98 -12v1288h236v-514l514 514h332l-645 -647l639 -641h-332l-473 475l-35 -35v-440h-236z" />
<glyph unicode="l" horiz-adv-x="837" d="M98 -12v1288h236v-1051h504v-237h-740z" />
<glyph unicode="m" d="M98 -12v1288h236v-31q70 29 145 29q152 0 260 -107q111 106 265 107q160 0 271 -111.5t111 -271.5v-903h-235v903q0 61 -43 104t-104 43t-103.5 -42t-42.5 -103v-905h-235v905q0 59 -42 102t-102 43q-61 0 -103 -42t-42 -103v-905h-236z" />
<glyph unicode="n" horiz-adv-x="1206" d="M98 -12v1288h236v-105q143 102 319 103q231 0 392 -162t161 -393v-731h-235v731q0 131 -93.5 225t-224.5 94q-133 0 -226 -93t-93 -226v-731h-236z" />
<glyph unicode="o" d="M98 629q0 268 188.5 456.5t456.5 188.5t455.5 -188.5t187.5 -456.5t-187 -456.5t-456 -188.5q-268 0 -456.5 188t-188.5 457zM334 629q0 -172 118.5 -290t290.5 -118q170 0 289 119t119 289t-119 289.5t-289 119.5q-172 0 -290.5 -118.5t-118.5 -290.5z" />
<glyph unicode="p" horiz-adv-x="1214" d="M98 -12v1288l121 -4l617 2q158 0 268 -111.5t110 -269.5t-110.5 -268.5t-267.5 -110.5h-502v-526h-236zM334 750h502q59 0 101 42t42 101t-42 102t-101 43h-502v-288z" />
<glyph unicode="q" d="M98 629q0 268 188.5 456.5t456.5 188.5t455.5 -188.5t187.5 -456.5q0 -188 -101 -346t-271 -238v-192h-236v133q-18 -2 -35 -2q-268 0 -456.5 188t-188.5 457zM348 737q211 -27 377 -137q182 -121 254 -305q172 123 172 334q0 170 -119 289.5t-289 119.5 q-139 0 -248.5 -83t-146.5 -218zM354 498q45 -127 150.5 -202t238.5 -75h11q-49 111 -166 187q-102 66 -234 90z" />
<glyph unicode="r" horiz-adv-x="1138" d="M98 -12v1288h236v-150q178 147 407 148q222 -1 398 -148l-111 -221q-131 133 -287 133q-170 0 -288.5 -118.5t-118.5 -288.5v-643h-236z" />
<glyph unicode="s" horiz-adv-x="1140" d="M98 584h236q0 -190 59 -269q68 -90 250 -90q102 0 172 35q90 43 90 135q0 78 -92 121q-23 10 -158 45q-258 66 -317 98q-158 86 -158 275q0 109 74 199q115 141 360 141q457 0 457 -508h-235q0 143 -39 201q-46 71 -179 71h-4q-66 0 -120 -20q-78 -29 -78 -84t41 -72 q27 -10 288 -80q188 -49 273 -116q123 -99 123 -271q0 -213 -176 -321q-135 -84 -322 -84q-545 0 -545 594z" />
<glyph unicode="t" horiz-adv-x="872" d="M98 373v901h236v-199h528v-235h-528v-467q0 -61 43 -104.5t104 -43.5q145 0 146 242h245q-10 -102 -38 -244q-47 -109 -141.5 -172t-211.5 -63q-160 0 -271.5 112.5t-111.5 272.5z" />
<glyph unicode="u" d="M98 629v647h236v-647q0 -172 118.5 -290t290.5 -118q170 0 289 119t119 289v647h235v-1288h-235v143q-178 -147 -408 -147q-268 0 -456.5 188t-188.5 457z" />
<glyph unicode="v" horiz-adv-x="1417" d="M227 1276h260l353 -883l325 883h252l-479 -1288h-184z" />
<glyph unicode="w" horiz-adv-x="1941" d="M215 1276h246l256 -827l256 827h207l256 -830l260 830h246l-410 -1288h-196l-258 829l-261 -829h-200z" />
<glyph unicode="x" horiz-adv-x="1593" d="M301 -12l498 643l-483 645h297l333 -453l342 453h293l-485 -645l498 -643h-297l-351 452l-348 -452h-297z" />
<glyph unicode="y" horiz-adv-x="1497" d="M286 1276h297l305 -414l314 414h295l-490 -647v-641h-235v643z" />
<glyph unicode="z" horiz-adv-x="1185" d="M166 -12v184l668 866l-600 2v236l938 -4v-180l-668 -865h682v-239h-1020z" />
<glyph unicode="{" horiz-adv-x="692" d="M98 602v176q147 25 148 260v338q0 322 246 322h200v-236h-196q-20 0 -19 -45q4 -76 4 -78v-335q0 -205 -98 -334q98 -129 98 -334v-332q0 -43 -2 -84q-2 -31 0 -35q4 -8 17 -8h196v-235h-200q-246 0 -246 325v334q0 117 -27 174q-31 70 -121 127z" />
<glyph unicode="|" horiz-adv-x="333" d="M98 -31v1729h236v-1729h-236z" />
<glyph unicode="}" horiz-adv-x="692" d="M98 -123h195q20 0 18 45q-2 76 -2 78v336q0 205 97 334q-96 129 -97 334v331v84v35q-4 8 -16 8h-195v236h199q248 0 248 -326v-334q0 -117 26 -174q31 -70 121 -127v-176q-147 -25 -147 -260v-338q0 -322 -248 -321h-199v235z" />
<glyph unicode="~" horiz-adv-x="1302" d="M98 475q176 330 391 330q102 0 271 -74q141 -61 172 -61t80 71q18 31 59 93l232 -70q-111 -182 -179 -246q-88 -84 -194 -84q-80 0 -229.5 70.5t-219.5 70.5q-59 0 -153 -167z" />
<glyph unicode="&#xa1;" horiz-adv-x="362" d="M98 1143q0 55 39 94t94 39t93 -39t38 -94t-37.5 -93t-93.5 -38q-55 0 -94 37.5t-39 93.5zM113 -12v981h235v-981h-235z" />
<glyph unicode="&#xa2;" horiz-adv-x="1726" d="M45 16l127 252l25 -12l-66 -131l195 63l37 -18l-193 -59l62 -191l-35 19l-51 161l-33 -8l-43 -88zM137 911q0 301 213 494q207 188 510 188q301 0 512 -211t211 -512t-211 -512t-512 -211t-514 234q-209 227 -209 530zM240 870q0 -258 181 -439t439 -181t439.5 181 t181.5 439t-181.5 439.5t-439.5 181.5q-260 0 -440 -180.5t-180 -440.5zM285 -98l82 270l158 -49q31 -10 45 -37.5t4 -58.5q-8 -31 -36 -46.5t-59 -5.5l-30 11l84 -160l-37 12l-84 160l-64 18l-36 -122zM357 43l129 -41q49 -16 63 33t-33 63l-131 39zM602 -41q4 59 49.5 96 t104.5 31q72 -6 109 -68l6 58l24 -2l-2 4l31 2l119 -230l65 248l29 2l-78 -288l-25 -5l-137 265l-26 -279l-27 2l4 58q-47 -53 -119 -48q-57 6 -94 51.5t-33 102.5zM631 -43q-6 -47 24.5 -84t77.5 -41t83 25.5t40 76.5t-25.5 84t-76.5 41t-82 -25.5t-41 -76.5zM649 670 l111 63l-111 64q37 66 111 65q53 0 91 -38t38 -91t-38 -90t-91 -37q-74 0 -111 64zM733 530h349q0 -72 -51.5 -123t-122.5 -51q-72 0 -123.5 51.5t-51.5 122.5zM951 670l110 63l-110 64q37 66 110 65q53 0 91 -38t38 -91t-38 -90t-91 -37q-74 0 -110 64zM1149 111l27 6 l57 -277l-26 -6zM1213 123l172 55l8 -24l-74 -25l78 -244l-27 -8l-77 244l-72 -25zM1420 195l176 90l10 -23l-51 -285l159 84l13 -24l-193 -100l-10 22l51 285l-143 -74z" />
<glyph unicode="&#xa3;" horiz-adv-x="882" d="M98 -12v903q0 160 112 271.5t271 111.5q117 0 211 -63.5t142 -172.5q16 -39 38 -241h-245q0 242 -146 241q-61 0 -104 -43t-43 -104v-180h323v-236h-323v-250h319v97h230v-334h-785z" />
<glyph unicode="&#xa4;" horiz-adv-x="1351" d="M98 338l125 125q-102 152 -102 336q0 182 102 336l-125 125l166 165l125 -125q154 104 336 105q184 0 336 -102l125 122l166 -165l-123 -125q102 -152 102 -336q0 -182 -104 -336l125 -125l-166 -166l-125 125q-154 -102 -336 -102q-184 0 -336 102l-125 -125zM356 799 q0 -154 107.5 -261.5t261.5 -107.5t262.5 108.5t108.5 260.5q0 156 -107.5 263t-263.5 107q-152 0 -260.5 -108.5t-108.5 -261.5z" />
<glyph unicode="&#xa5;" horiz-adv-x="1308" d="M98 1276h297l305 -414l314 414h295l-408 -537h256v-235h-338v-90h338v-236h-338v-190h-235v190h-332v236h332v90h-332v235h250z" />
<glyph unicode="&#xa6;" horiz-adv-x="333" d="M98 -31v787h236v-787h-236zM98 913v785h236v-785h-236z" />
<glyph unicode="&#xa7;" horiz-adv-x="1146" d="M98 530h242q0 -180 64.5 -249.5t240.5 -69.5q90 0 160 27q100 37 100 110q0 59 -96 96q-23 8 -147 37q-260 59 -316 86q-166 82 -166 260v136q0 106 78 190q115 125 358 125q461 0 461 -479h-178q248 -94 248 -316v-135q0 -203 -182 -301q-135 -74 -320 -74 q-547 0 -547 557zM422 963q0 -37 37 -50q61 -20 176 -45q148 -31 201 -47q-2 125 -48.5 172t-171.5 47q-59 0 -112 -14q-82 -20 -82 -63zM950 571q27 -37 27 -88v-6l96 49l-112 82z" />
<glyph unicode="&#xa8;" horiz-adv-x="643" d="M-49 1626q0 63 46 109.5t109 46.5t109.5 -46.5t46.5 -109.5t-46 -108t-110 -45q-63 0 -109 45t-46 108zM332 1626q0 63 45 109.5t108 46.5t109.5 -46.5t46.5 -109.5t-46 -108t-110 -45q-63 0 -108 45t-45 108z" />
<glyph unicode="&#xa9;" d="M98 629q0 268 188.5 456.5t456.5 188.5t455.5 -188.5t187.5 -456.5t-187 -456.5t-456 -188.5q-268 0 -456.5 188t-188.5 457zM334 629q0 -172 118.5 -290t290.5 -118q170 0 289 119t119 289t-119 289.5t-289 119.5q-172 0 -290.5 -118.5t-118.5 -290.5zM420 629 q0 135 95 230t230 95q180 0 332 -243l-127 -80l129 -78q-150 -248 -334 -248q-135 0 -230 94.5t-95 229.5zM649 629q0 -39 29 -66.5t67 -27.5q50 0 113 96q-63 94 -113 94q-41 0 -68.5 -27.5t-27.5 -68.5z" />
<glyph unicode="&#xaa;" horiz-adv-x="1726" d="M45 16l127 252l25 -12l-66 -131l195 63l37 -18l-193 -59l62 -191l-35 19l-51 161l-33 -8l-43 -88zM137 911q0 301 213 494q207 188 510 188q301 0 512 -211t211 -512t-211 -512t-512 -211t-514 234q-209 227 -209 530zM240 870q0 -258 181 -439t439 -181t439.5 181 t181.5 439t-181.5 439.5t-439.5 181.5q-260 0 -440 -180.5t-180 -440.5zM285 -98l82 270l158 -49q31 -10 45 -37.5t4 -58.5q-8 -31 -36 -46.5t-59 -5.5l-30 11l84 -160l-37 12l-84 160l-64 18l-36 -122zM357 43l129 -41q49 -16 63 33t-33 63l-131 39zM602 -41q4 59 49.5 96 t104.5 31q72 -6 109 -68l6 58l24 -2l-2 4l31 2l119 -230l65 248l29 2l-78 -288l-25 -5l-137 265l-26 -279l-27 2l4 58q-47 -53 -119 -48q-57 6 -94 51.5t-33 102.5zM631 -43q-6 -47 24.5 -84t77.5 -41t83 25.5t40 76.5t-25.5 84t-76.5 41t-82 -25.5t-41 -76.5zM649 670 l111 63l-111 64q37 66 111 65q53 0 91 -38t38 -91t-38 -90t-91 -37q-74 0 -111 64zM733 530h349q0 -72 -51.5 -123t-122.5 -51q-72 0 -123.5 51.5t-51.5 122.5zM951 670l110 63l-110 64q37 66 110 65q53 0 91 -38t38 -91t-38 -90t-91 -37q-74 0 -110 64zM1149 111l27 6 l57 -277l-26 -6zM1213 123l172 55l8 -24l-74 -25l78 -244l-27 -8l-77 244l-72 -25zM1420 195l176 90l10 -23l-51 -285l159 84l13 -24l-193 -100l-10 22l51 285l-143 -74z" />
<glyph unicode="&#xab;" horiz-adv-x="899" d="M98 602v98l406 547v-399l-148 -197l148 -196v-400zM494 602v98l405 547v-399l-147 -197l147 -196v-400z" />
<glyph unicode="&#xac;" horiz-adv-x="1325" d="M98 702v236h1227v-741h-235v505h-992z" />
<glyph unicode="&#xad;" horiz-adv-x="651" d="M98 535v235h553v-235h-553z" />
<glyph unicode="&#xae;" d="M98 629q0 268 188.5 456.5t456.5 188.5t455.5 -188.5t187.5 -456.5t-187 -456.5t-456 -188.5q-268 0 -456.5 188t-188.5 457zM334 629q0 -180 135 -303v608q-135 -125 -135 -305zM489 307q109 -86 254 -86q143 0 252 86h-108l-189 189v-189h-209zM496 956h333 q92 0 157 -64.5t65 -156.5q0 -111 -93 -176l138 -137q55 92 55 207q0 170 -119 289.5t-289 119.5q-141 0 -247 -82zM698 684h90q54 0 54 51q0 53 -54 53h-90v-104z" />
<glyph unicode="&#xaf;" horiz-adv-x="770" d="M98 1497v236h672v-236h-672z" />
<glyph unicode="&#xb0;" horiz-adv-x="653" d="M98 997q0 113 82 196t195 83t195.5 -83t82.5 -196q0 -115 -82 -195.5t-196 -80.5q-115 0 -196 81t-81 195zM334 997q0 -41 41 -41q43 0 43 41q0 43 -43 43q-41 0 -41 -43z" />
<glyph unicode="&#xb1;" horiz-adv-x="1325" d="M98 6v236h496v354h-496v235h496v406h235v-406h496v-235h-496v-354h496v-236h-1227z" />
<glyph unicode="&#xb4;" horiz-adv-x="493" d="M-47 1413l448 490h340l-497 -490h-291z" />
<glyph unicode="&#xb6;" horiz-adv-x="1726" d="M45 16l127 252l25 -12l-66 -131l195 63l37 -18l-193 -59l62 -191l-35 19l-51 161l-33 -8l-43 -88zM137 911q0 301 213 494q207 188 510 188q301 0 512 -211t211 -512t-211 -512t-512 -211t-514 234q-209 227 -209 530zM240 870q0 -258 181 -439t439 -181t439.5 181 t181.5 439t-181.5 439.5t-439.5 181.5q-260 0 -440 -180.5t-180 -440.5zM285 -98l82 270l158 -49q31 -10 45 -37.5t4 -58.5q-8 -31 -36 -46.5t-59 -5.5l-30 11l84 -160l-37 12l-84 160l-64 18l-36 -122zM357 43l129 -41q49 -16 63 33t-33 63l-131 39zM602 -41q4 59 49.5 96 t104.5 31q72 -6 109 -68l6 58l24 -2l-2 4l31 2l119 -230l65 248l29 2l-78 -288l-25 -5l-137 265l-26 -279l-27 2l4 58q-47 -53 -119 -48q-57 6 -94 51.5t-33 102.5zM631 -43q-6 -47 24.5 -84t77.5 -41t83 25.5t40 76.5t-25.5 84t-76.5 41t-82 -25.5t-41 -76.5zM649 670 l111 63l-111 64q37 66 111 65q53 0 91 -38t38 -91t-38 -90t-91 -37q-74 0 -111 64zM733 530h349q0 -72 -51.5 -123t-122.5 -51q-72 0 -123.5 51.5t-51.5 122.5zM951 670l110 63l-110 64q37 66 110 65q53 0 91 -38t38 -91t-38 -90t-91 -37q-74 0 -110 64zM1149 111l27 6 l57 -277l-26 -6zM1213 123l172 55l8 -24l-74 -25l78 -244l-27 -8l-77 244l-72 -25zM1420 195l176 90l10 -23l-51 -285l159 84l13 -24l-193 -100l-10 22l51 285l-143 -74z" />
<glyph unicode="&#xb7;" horiz-adv-x="423" d="M98 799q0 68 47.5 116t114.5 48q68 0 116 -48t48 -116t-48 -115t-116 -47t-115 47t-47 115z" />
<glyph unicode="&#xb8;" horiz-adv-x="700" d="M98 -522l103 219q162 -57 200 -57q23 0 43.5 16t20.5 37q0 25 -16 24q-39 0 -113 -43l-170 113l211 270h280l-96 -131q139 -75 139 -233q0 -127 -86 -208t-213 -81q-72 0 -303 74z" />
<glyph unicode="&#xba;" horiz-adv-x="1726" d="M45 16l127 252l25 -12l-66 -131l195 63l37 -18l-193 -59l62 -191l-35 19l-51 161l-33 -8l-43 -88zM137 911q0 301 213 494q207 188 510 188q301 0 512 -211t211 -512t-211 -512t-512 -211t-514 234q-209 227 -209 530zM240 870q0 -258 181 -439t439 -181t439.5 181 t181.5 439t-181.5 439.5t-439.5 181.5q-260 0 -440 -180.5t-180 -440.5zM285 -98l82 270l158 -49q31 -10 45 -37.5t4 -58.5q-8 -31 -36 -46.5t-59 -5.5l-30 11l84 -160l-37 12l-84 160l-64 18l-36 -122zM357 43l129 -41q49 -16 63 33t-33 63l-131 39zM602 -41q4 59 49.5 96 t104.5 31q72 -6 109 -68l6 58l24 -2l-2 4l31 2l119 -230l65 248l29 2l-78 -288l-25 -5l-137 265l-26 -279l-27 2l4 58q-47 -53 -119 -48q-57 6 -94 51.5t-33 102.5zM631 -43q-6 -47 24.5 -84t77.5 -41t83 25.5t40 76.5t-25.5 84t-76.5 41t-82 -25.5t-41 -76.5zM649 670 l111 63l-111 64q37 66 111 65q53 0 91 -38t38 -91t-38 -90t-91 -37q-74 0 -111 64zM733 530h349q0 -72 -51.5 -123t-122.5 -51q-72 0 -123.5 51.5t-51.5 122.5zM951 670l110 63l-110 64q37 66 110 65q53 0 91 -38t38 -91t-38 -90t-91 -37q-74 0 -110 64zM1149 111l27 6 l57 -277l-26 -6zM1213 123l172 55l8 -24l-74 -25l78 -244l-27 -8l-77 244l-72 -25zM1420 195l176 90l10 -23l-51 -285l159 84l13 -24l-193 -100l-10 22l51 285l-143 -74z" />
<glyph unicode="&#xbb;" horiz-adv-x="899" d="M98 55v400l146 196l-146 197v399l406 -547v-98zM494 55v400l145 196l-145 197v399l405 -547v-98z" />
<glyph unicode="&#xbf;" horiz-adv-x="1011" d="M98 446q0 156 94.5 279t245.5 162v90h236v-309h-119q-92 0 -156.5 -64.5t-64.5 -157.5q0 -92 64.5 -156.5t156.5 -64.5q117 0 174 107q47 84 47 211h236q0 -227 -113 -383q-125 -172 -344 -172q-190 0 -323.5 134t-133.5 324zM422 1141q0 55 39 94t94 39t93 -39t38 -94 t-38 -93t-93 -38t-94 37.5t-39 93.5z" />
<glyph unicode="&#xc0;" horiz-adv-x="1384" d="M98 631q0 268 187.5 455.5t455.5 187.5q229 0 408 -148v150h235v-1288h-235v145q-178 -147 -408 -147q-268 0 -455.5 188t-187.5 457zM258 1903h334l424 -490h-285zM334 631q0 -170 118.5 -289t288.5 -119t289 119t119 289t-119 288.5t-289 118.5t-288.5 -118.5 t-118.5 -288.5z" />
<glyph unicode="&#xc1;" horiz-adv-x="1384" d="M98 631q0 268 187.5 455.5t455.5 187.5q229 0 408 -148v150h235v-1288h-235v145q-178 -147 -408 -147q-268 0 -455.5 188t-187.5 457zM334 631q0 -170 118.5 -289t288.5 -119t289 119t119 289t-119 288.5t-289 118.5t-288.5 -118.5t-118.5 -288.5zM467 1413l448 490h340 l-497 -490h-291z" />
<glyph unicode="&#xc2;" horiz-adv-x="1384" d="M98 631q0 268 187.5 455.5t455.5 187.5q229 0 408 -148v150h235v-1288h-235v145q-178 -147 -408 -147q-268 0 -455.5 188t-187.5 457zM285 1423l389 480h123l393 -480h-290l-164 195l-158 -195h-293zM334 631q0 -170 118.5 -289t288.5 -119t289 119t119 289t-119 288.5 t-289 118.5t-288.5 -118.5t-118.5 -288.5z" />
<glyph unicode="&#xc3;" horiz-adv-x="1384" d="M98 631q0 268 187.5 455.5t455.5 187.5q229 0 408 -148v150h235v-1288h-235v145q-178 -147 -408 -147q-268 0 -455.5 188t-187.5 457zM334 631q0 -170 118.5 -289t288.5 -119t289 119t119 289t-119 288.5t-289 118.5t-288.5 -118.5t-118.5 -288.5zM371 1444q0 133 51 233 q63 123 187 123q66 0 165 -59.5t95 -59.5q8 0 8 13l-2 32q-2 33 -2 68h235q0 -348 -239 -348q-72 0 -167 59.5t-93 59.5q-6 0 -4 -25q4 -55 4 -96h-238z" />
<glyph unicode="&#xc4;" horiz-adv-x="1384" d="M98 631q0 268 187.5 455.5t455.5 187.5q229 0 408 -148v150h235v-1288h-235v145q-178 -147 -408 -147q-268 0 -455.5 188t-187.5 457zM334 631q0 -170 118.5 -289t288.5 -119t289 119t119 289t-119 288.5t-289 118.5t-288.5 -118.5t-118.5 -288.5zM422 1626 q0 63 46 109.5t109 46.5t109.5 -46.5t46.5 -109.5t-46 -108t-110 -45q-63 0 -109 45t-46 108zM803 1626q0 63 45 109.5t108 46.5t109.5 -46.5t46.5 -109.5t-46 -108t-110 -45q-63 0 -108 45t-45 108z" />
<glyph unicode="&#xc5;" horiz-adv-x="1384" d="M98 631q0 268 187.5 455.5t455.5 187.5q229 0 408 -148v150h235v-1288h-235v145q-178 -147 -408 -147q-268 0 -455.5 188t-187.5 457zM334 631q0 -170 118.5 -289t288.5 -119t289 119t119 289t-119 288.5t-289 118.5t-288.5 -118.5t-118.5 -288.5zM630 1688 q0 113 83 195.5t196 82.5t195.5 -82.5t82.5 -195.5q0 -115 -81.5 -196t-196.5 -81t-197 81t-82 196zM868 1688q0 -41 41 -41q43 0 43 41q0 43 -43 43q-41 0 -41 -43z" />
<glyph unicode="&#xc6;" horiz-adv-x="2160" d="M98 631q0 268 187.5 455.5t455.5 187.5q215 0 387 -131q10 8 21 14v119h235v-16q66 14 134 14q268 0 455.5 -188.5t187.5 -456.5v-117h-777v-270q63 -20 134 -21q231 0 399 281l203 -121q-238 -397 -602 -397q-68 0 -134 14v-10h-235v112q-10 6 -21 15 q-172 -129 -387 -129q-268 0 -455.5 188t-187.5 457zM334 631q0 -170 118.5 -289t288.5 -119q126 0 228 68q-96 156 -97 338q0 184 97 340q-102 70 -228 69q-170 0 -288.5 -118.5t-118.5 -288.5zM1108 608q0 -55 18 -110q23 63 23 133q0 66 -21 129q-20 -55 -20 -111v-41z M1384 748h525q-39 129 -147.5 209.5t-243.5 80.5q-70 0 -134 -22v-268z" />
<glyph unicode="&#xc7;" horiz-adv-x="1341" d="M98 631q0 268 187.5 455.5t455.5 187.5q356 0 598 -387l-200 -125q-172 276 -398 276q-170 0 -288.5 -118.5t-118.5 -288.5t118.5 -289t288.5 -119q229 0 400 279l200 -121q-238 -395 -600 -395q-268 0 -455.5 188t-187.5 457zM608 -522l103 219q162 -57 200 -57 q23 0 43.5 16t20.5 37q0 25 -16 24q-39 0 -113 -43l-170 113l211 270h280l-96 -131q139 -75 139 -233q0 -127 -86 -208t-213 -81q-72 0 -303 74z" />
<glyph unicode="&#xc8;" d="M98 629q0 268 188.5 456.5t456.5 188.5t455.5 -188.5t187.5 -456.5v-117h-1036q39 -131 147.5 -211t245.5 -80q164 0 293 137l207 -120q-213 -254 -500 -254q-268 0 -456.5 188t-188.5 457zM258 1903h334l424 -490h-285zM350 748h785q-39 129 -147.5 209.5t-244.5 80.5 q-135 0 -244.5 -80.5t-148.5 -209.5z" />
<glyph unicode="&#xc9;" d="M98 629q0 268 188.5 456.5t456.5 188.5t455.5 -188.5t187.5 -456.5v-117h-1036q39 -131 147.5 -211t245.5 -80q164 0 293 137l207 -120q-213 -254 -500 -254q-268 0 -456.5 188t-188.5 457zM350 748h785q-39 129 -147.5 209.5t-244.5 80.5q-135 0 -244.5 -80.5 t-148.5 -209.5zM467 1413l448 490h340l-497 -490h-291z" />
<glyph unicode="&#xca;" d="M98 629q0 268 188.5 456.5t456.5 188.5t455.5 -188.5t187.5 -456.5v-117h-1036q39 -131 147.5 -211t245.5 -80q164 0 293 137l207 -120q-213 -254 -500 -254q-268 0 -456.5 188t-188.5 457zM285 1423l389 480h123l393 -480h-290l-164 195l-158 -195h-293zM350 748h785 q-39 129 -147.5 209.5t-244.5 80.5q-135 0 -244.5 -80.5t-148.5 -209.5z" />
<glyph unicode="&#xcb;" d="M98 629q0 268 188.5 456.5t456.5 188.5t455.5 -188.5t187.5 -456.5v-117h-1036q39 -131 147.5 -211t245.5 -80q164 0 293 137l207 -120q-213 -254 -500 -254q-268 0 -456.5 188t-188.5 457zM350 748h785q-39 129 -147.5 209.5t-244.5 80.5q-135 0 -244.5 -80.5 t-148.5 -209.5zM422 1626q0 63 46 109.5t109 46.5t109.5 -46.5t46.5 -109.5t-46 -108t-110 -45q-63 0 -109 45t-46 108zM803 1626q0 63 45 109.5t108 46.5t109.5 -46.5t46.5 -109.5t-46 -108t-110 -45q-63 0 -108 45t-45 108z" />
<glyph unicode="&#xcc;" horiz-adv-x="856" d="M98 1903h334l424 -490h-285zM409 -12v1288h236v-1288h-236z" />
<glyph unicode="&#xcd;" horiz-adv-x="886" d="M98 1413l448 490h340l-497 -490h-291zM223 -12v1288h236v-1288h-236z" />
<glyph unicode="&#xce;" horiz-adv-x="1003" d="M98 1423l389 480h123l393 -480h-290l-164 195l-158 -195h-293zM424 -12v1288h236v-1288h-236z" />
<glyph unicode="&#xcf;" horiz-adv-x="788" d="M98 1626q0 63 46 109.5t109 46.5t109.5 -46.5t46.5 -109.5t-46 -108t-110 -45q-63 0 -109 45t-46 108zM268 -12v1288h236v-1288h-236zM479 1626q0 63 45 109.5t108 46.5t109.5 -46.5t46.5 -109.5t-46 -108t-110 -45q-63 0 -108 45t-45 108z" />
<glyph unicode="&#xd0;" horiz-adv-x="1474" d="M98 590v235h88v451l121 -4l524 2q268 2 456 -187.5t188 -457.5t-187.5 -456.5t-456.5 -188.5h-645v606h-88zM434 221h410q170 0 288.5 119t118.5 289t-118.5 289.5t-288.5 119.5h-410v-213h199v-235h-199v-369z" />
<glyph unicode="&#xd1;" horiz-adv-x="1206" d="M98 -12v1288h236v-105q143 102 319 103q231 0 392 -162t161 -393v-731h-235v731q0 131 -93.5 225t-224.5 94q-133 0 -226 -93t-93 -226v-731h-236zM289 1444q0 133 51 233q63 123 187 123q66 0 165 -59.5t95 -59.5q8 0 8 13l-2 32q-2 33 -2 68h235q0 -348 -239 -348 q-72 0 -167 59.5t-93 59.5q-6 0 -4 -25q4 -55 4 -96h-238z" />
<glyph unicode="&#xd2;" d="M98 629q0 268 188.5 456.5t456.5 188.5t455.5 -188.5t187.5 -456.5t-187 -456.5t-456 -188.5q-268 0 -456.5 188t-188.5 457zM258 1903h334l424 -490h-285zM334 629q0 -172 118.5 -290t290.5 -118q170 0 289 119t119 289t-119 289.5t-289 119.5q-172 0 -290.5 -118.5 t-118.5 -290.5z" />
<glyph unicode="&#xd3;" d="M98 629q0 268 188.5 456.5t456.5 188.5t455.5 -188.5t187.5 -456.5t-187 -456.5t-456 -188.5q-268 0 -456.5 188t-188.5 457zM334 629q0 -172 118.5 -290t290.5 -118q170 0 289 119t119 289t-119 289.5t-289 119.5q-172 0 -290.5 -118.5t-118.5 -290.5zM467 1413l448 490 h340l-497 -490h-291z" />
<glyph unicode="&#xd4;" d="M98 629q0 268 188.5 456.5t456.5 188.5t455.5 -188.5t187.5 -456.5t-187 -456.5t-456 -188.5q-268 0 -456.5 188t-188.5 457zM285 1423l389 480h123l393 -480h-290l-164 195l-158 -195h-293zM334 629q0 -172 118.5 -290t290.5 -118q170 0 289 119t119 289t-119 289.5 t-289 119.5q-172 0 -290.5 -118.5t-118.5 -290.5z" />
<glyph unicode="&#xd5;" d="M98 629q0 268 188.5 456.5t456.5 188.5t455.5 -188.5t187.5 -456.5t-187 -456.5t-456 -188.5q-268 0 -456.5 188t-188.5 457zM334 629q0 -172 118.5 -290t290.5 -118q170 0 289 119t119 289t-119 289.5t-289 119.5q-172 0 -290.5 -118.5t-118.5 -290.5zM371 1444 q0 133 51 233q63 123 187 123q66 0 165 -59.5t95 -59.5q8 0 8 13l-2 32q-2 33 -2 68h235q0 -348 -239 -348q-72 0 -167 59.5t-93 59.5q-6 0 -4 -25q4 -55 4 -96h-238z" />
<glyph unicode="&#xd6;" d="M98 629q0 268 188.5 456.5t456.5 188.5t455.5 -188.5t187.5 -456.5t-187 -456.5t-456 -188.5q-268 0 -456.5 188t-188.5 457zM334 629q0 -172 118.5 -290t290.5 -118q170 0 289 119t119 289t-119 289.5t-289 119.5q-172 0 -290.5 -118.5t-118.5 -290.5zM422 1626 q0 63 46 109.5t109 46.5t109.5 -46.5t46.5 -109.5t-46 -108t-110 -45q-63 0 -109 45t-46 108zM803 1626q0 63 45 109.5t108 46.5t109.5 -46.5t46.5 -109.5t-46 -108t-110 -45q-63 0 -108 45t-45 108z" />
<glyph unicode="&#xd8;" d="M98 629q0 268 188.5 456.5t456.5 188.5t455.5 -188.5t187.5 -456.5t-187 -456.5t-456 -188.5q-268 0 -456.5 188t-188.5 457zM334 629q0 -172 118.5 -290t290.5 -118q170 0 289 119t119 289t-119 289.5t-289 119.5q-172 0 -290.5 -118.5t-118.5 -290.5z" />
<glyph unicode="&#xd9;" d="M98 629v647h236v-647q0 -172 118.5 -290t290.5 -118q170 0 289 119t119 289v647h235v-1288h-235v143q-178 -147 -408 -147q-268 0 -456.5 188t-188.5 457zM258 1903h334l424 -490h-285z" />
<glyph unicode="&#xda;" d="M98 629v647h236v-647q0 -172 118.5 -290t290.5 -118q170 0 289 119t119 289v647h235v-1288h-235v143q-178 -147 -408 -147q-268 0 -456.5 188t-188.5 457zM467 1413l448 490h340l-497 -490h-291z" />
<glyph unicode="&#xdb;" d="M98 629v647h236v-647q0 -172 118.5 -290t290.5 -118q170 0 289 119t119 289v647h235v-1288h-235v143q-178 -147 -408 -147q-268 0 -456.5 188t-188.5 457zM285 1423l389 480h123l393 -480h-290l-164 195l-158 -195h-293z" />
<glyph unicode="&#xdc;" d="M98 629v647h236v-647q0 -172 118.5 -290t290.5 -118q170 0 289 119t119 289v647h235v-1288h-235v143q-178 -147 -408 -147q-268 0 -456.5 188t-188.5 457zM422 1626q0 63 46 109.5t109 46.5t109.5 -46.5t46.5 -109.5t-46 -108t-110 -45q-63 0 -109 45t-46 108zM803 1626 q0 63 45 109.5t108 46.5t109.5 -46.5t46.5 -109.5t-46 -108t-110 -45q-63 0 -108 45t-45 108z" />
<glyph unicode="&#xdd;" horiz-adv-x="1497" d="M286 1276h297l305 -414l314 414h295l-490 -647v-641h-235v643zM518 1413l448 490h340l-497 -490h-291z" />
<glyph unicode="&#xde;" horiz-adv-x="1384" d="M98 -217v1698h236v-355q178 147 407 148q268 0 455.5 -187.5t187.5 -455.5t-187 -456.5t-456 -188.5q-229 0 -407 147v-350h-236zM334 631q0 -170 118.5 -289t288.5 -119t289 119t119 289t-119 288.5t-289 118.5t-288.5 -118.5t-118.5 -288.5z" />
<glyph unicode="&#xdf;" horiz-adv-x="933" d="M98 -117v1041q0 166 106.5 262t274.5 96q160 0 277.5 -96t117.5 -254q0 -133 -73 -223q133 -103 133 -306q0 -418 -504 -417h-39v231h39q135 0 191 27q80 41 79 159q0 111 -86 146q-51 20 -184 20h-22v232h22q211 0 211 131q0 119 -162 119q-147 0 -147 -131v-1037h-234z " />
<glyph unicode="&#xe0;" horiz-adv-x="1384" d="M98 631q0 268 187.5 455.5t455.5 187.5q229 0 408 -148v150h235v-1288h-235v145q-178 -147 -408 -147q-268 0 -455.5 188t-187.5 457zM258 1903h334l424 -490h-285zM334 631q0 -170 118.5 -289t288.5 -119t289 119t119 289t-119 288.5t-289 118.5t-288.5 -118.5 t-118.5 -288.5z" />
<glyph unicode="&#xe1;" horiz-adv-x="1384" d="M98 631q0 268 187.5 455.5t455.5 187.5q229 0 408 -148v150h235v-1288h-235v145q-178 -147 -408 -147q-268 0 -455.5 188t-187.5 457zM334 631q0 -170 118.5 -289t288.5 -119t289 119t119 289t-119 288.5t-289 118.5t-288.5 -118.5t-118.5 -288.5zM467 1413l448 490h340 l-497 -490h-291z" />
<glyph unicode="&#xe2;" horiz-adv-x="1384" d="M98 631q0 268 187.5 455.5t455.5 187.5q229 0 408 -148v150h235v-1288h-235v145q-178 -147 -408 -147q-268 0 -455.5 188t-187.5 457zM285 1423l389 480h123l393 -480h-290l-164 195l-158 -195h-293zM334 631q0 -170 118.5 -289t288.5 -119t289 119t119 289t-119 288.5 t-289 118.5t-288.5 -118.5t-118.5 -288.5z" />
<glyph unicode="&#xe3;" horiz-adv-x="1384" d="M98 631q0 268 187.5 455.5t455.5 187.5q229 0 408 -148v150h235v-1288h-235v145q-178 -147 -408 -147q-268 0 -455.5 188t-187.5 457zM334 631q0 -170 118.5 -289t288.5 -119t289 119t119 289t-119 288.5t-289 118.5t-288.5 -118.5t-118.5 -288.5zM371 1444q0 133 51 233 q63 123 187 123q66 0 165 -59.5t95 -59.5q8 0 8 13l-2 32q-2 33 -2 68h235q0 -348 -239 -348q-72 0 -167 59.5t-93 59.5q-6 0 -4 -25q4 -55 4 -96h-238z" />
<glyph unicode="&#xe4;" horiz-adv-x="1384" d="M98 631q0 268 187.5 455.5t455.5 187.5q229 0 408 -148v150h235v-1288h-235v145q-178 -147 -408 -147q-268 0 -455.5 188t-187.5 457zM334 631q0 -170 118.5 -289t288.5 -119t289 119t119 289t-119 288.5t-289 118.5t-288.5 -118.5t-118.5 -288.5zM422 1626 q0 63 46 109.5t109 46.5t109.5 -46.5t46.5 -109.5t-46 -108t-110 -45q-63 0 -109 45t-46 108zM803 1626q0 63 45 109.5t108 46.5t109.5 -46.5t46.5 -109.5t-46 -108t-110 -45q-63 0 -108 45t-45 108z" />
<glyph unicode="&#xe5;" horiz-adv-x="1384" d="M98 631q0 268 187.5 455.5t455.5 187.5q229 0 408 -148v150h235v-1288h-235v145q-178 -147 -408 -147q-268 0 -455.5 188t-187.5 457zM334 631q0 -170 118.5 -289t288.5 -119t289 119t119 289t-119 288.5t-289 118.5t-288.5 -118.5t-118.5 -288.5zM630 1688 q0 113 83 195.5t196 82.5t195.5 -82.5t82.5 -195.5q0 -115 -81.5 -196t-196.5 -81t-197 81t-82 196zM868 1688q0 -41 41 -41q43 0 43 41q0 43 -43 43q-41 0 -41 -43z" />
<glyph unicode="&#xe6;" horiz-adv-x="2160" d="M98 631q0 268 187.5 455.5t455.5 187.5q215 0 387 -131q10 8 21 14v119h235v-16q66 14 134 14q268 0 455.5 -188.5t187.5 -456.5v-117h-777v-270q63 -20 134 -21q231 0 399 281l203 -121q-238 -397 -602 -397q-68 0 -134 14v-10h-235v112q-10 6 -21 15 q-172 -129 -387 -129q-268 0 -455.5 188t-187.5 457zM334 631q0 -170 118.5 -289t288.5 -119q126 0 228 68q-96 156 -97 338q0 184 97 340q-102 70 -228 69q-170 0 -288.5 -118.5t-118.5 -288.5zM1108 608q0 -55 18 -110q23 63 23 133q0 66 -21 129q-20 -55 -20 -111v-41z M1384 748h525q-39 129 -147.5 209.5t-243.5 80.5q-70 0 -134 -22v-268z" />
<glyph unicode="&#xe7;" horiz-adv-x="1341" d="M98 631q0 268 187.5 455.5t455.5 187.5q356 0 598 -387l-200 -125q-172 276 -398 276q-170 0 -288.5 -118.5t-118.5 -288.5t118.5 -289t288.5 -119q229 0 400 279l200 -121q-238 -395 -600 -395q-268 0 -455.5 188t-187.5 457zM608 -522l103 219q162 -57 200 -57 q23 0 43.5 16t20.5 37q0 25 -16 24q-39 0 -113 -43l-170 113l211 270h280l-96 -131q139 -75 139 -233q0 -127 -86 -208t-213 -81q-72 0 -303 74z" />
<glyph unicode="&#xe8;" d="M98 629q0 268 188.5 456.5t456.5 188.5t455.5 -188.5t187.5 -456.5v-117h-1036q39 -131 147.5 -211t245.5 -80q164 0 293 137l207 -120q-213 -254 -500 -254q-268 0 -456.5 188t-188.5 457zM258 1903h334l424 -490h-285zM350 748h785q-39 129 -147.5 209.5t-244.5 80.5 q-135 0 -244.5 -80.5t-148.5 -209.5z" />
<glyph unicode="&#xe9;" d="M98 629q0 268 188.5 456.5t456.5 188.5t455.5 -188.5t187.5 -456.5v-117h-1036q39 -131 147.5 -211t245.5 -80q164 0 293 137l207 -120q-213 -254 -500 -254q-268 0 -456.5 188t-188.5 457zM350 748h785q-39 129 -147.5 209.5t-244.5 80.5q-135 0 -244.5 -80.5 t-148.5 -209.5zM467 1413l448 490h340l-497 -490h-291z" />
<glyph unicode="&#xea;" d="M98 629q0 268 188.5 456.5t456.5 188.5t455.5 -188.5t187.5 -456.5v-117h-1036q39 -131 147.5 -211t245.5 -80q164 0 293 137l207 -120q-213 -254 -500 -254q-268 0 -456.5 188t-188.5 457zM285 1423l389 480h123l393 -480h-290l-164 195l-158 -195h-293zM350 748h785 q-39 129 -147.5 209.5t-244.5 80.5q-135 0 -244.5 -80.5t-148.5 -209.5z" />
<glyph unicode="&#xeb;" d="M98 629q0 268 188.5 456.5t456.5 188.5t455.5 -188.5t187.5 -456.5v-117h-1036q39 -131 147.5 -211t245.5 -80q164 0 293 137l207 -120q-213 -254 -500 -254q-268 0 -456.5 188t-188.5 457zM350 748h785q-39 129 -147.5 209.5t-244.5 80.5q-135 0 -244.5 -80.5 t-148.5 -209.5zM422 1626q0 63 46 109.5t109 46.5t109.5 -46.5t46.5 -109.5t-46 -108t-110 -45q-63 0 -109 45t-46 108zM803 1626q0 63 45 109.5t108 46.5t109.5 -46.5t46.5 -109.5t-46 -108t-110 -45q-63 0 -108 45t-45 108z" />
<glyph unicode="&#xec;" horiz-adv-x="856" d="M98 1903h334l424 -490h-285zM471 -12v1288h236v-1288h-236z" />
<glyph unicode="&#xed;" horiz-adv-x="886" d="M98 1413l448 490h340l-497 -490h-291zM223 -12v1288h236v-1288h-236z" />
<glyph unicode="&#xee;" horiz-adv-x="1003" d="M98 1423l389 480h123l393 -480h-290l-164 195l-158 -195h-293zM424 -12v1288h236v-1288h-236z" />
<glyph unicode="&#xef;" horiz-adv-x="788" d="M98 1626q0 63 46 109.5t109 46.5t109.5 -46.5t46.5 -109.5t-46 -108t-110 -45q-63 0 -109 45t-46 108zM270 -12v1288h236v-1288h-236zM479 1626q0 63 45 109.5t108 46.5t109.5 -46.5t46.5 -109.5t-46 -108t-110 -45q-63 0 -108 45t-45 108z" />
<glyph unicode="&#xf0;" horiz-adv-x="1163" d="M98 455q0 195 139.5 330t335.5 135q49 0 97 -11v111h10q-51 31 -125 31q-98 0 -154 -70l-260 -4q111 305 412 305q289 0 424 -262h186v-236h-114q14 -86 14 -178q0 -272 -88 -405q-63 -96 -174 -154.5t-228 -58.5q-197 0 -336 135t-139 332zM332 455q0 -100 70.5 -167 t170.5 -67t172 67t72 167t-71.5 166.5t-172.5 66.5q-100 0 -170.5 -66.5t-70.5 -166.5z" />
<glyph unicode="&#xf1;" horiz-adv-x="1206" d="M98 -12v1288h236v-105q143 102 319 103q231 0 392 -162t161 -393v-731h-235v731q0 131 -93.5 225t-224.5 94q-133 0 -226 -93t-93 -226v-731h-236zM289 1444q0 133 51 233q63 123 187 123q66 0 165 -59.5t95 -59.5q8 0 8 13l-2 32q-2 33 -2 68h235q0 -348 -239 -348 q-72 0 -167 59.5t-93 59.5q-6 0 -4 -25q4 -55 4 -96h-238z" />
<glyph unicode="&#xf2;" d="M98 629q0 268 188.5 456.5t456.5 188.5t455.5 -188.5t187.5 -456.5t-187 -456.5t-456 -188.5q-268 0 -456.5 188t-188.5 457zM258 1903h334l424 -490h-285zM334 629q0 -172 118.5 -290t290.5 -118q170 0 289 119t119 289t-119 289.5t-289 119.5q-172 0 -290.5 -118.5 t-118.5 -290.5z" />
<glyph unicode="&#xf3;" d="M98 629q0 268 188.5 456.5t456.5 188.5t455.5 -188.5t187.5 -456.5t-187 -456.5t-456 -188.5q-268 0 -456.5 188t-188.5 457zM334 629q0 -172 118.5 -290t290.5 -118q170 0 289 119t119 289t-119 289.5t-289 119.5q-172 0 -290.5 -118.5t-118.5 -290.5zM467 1413l448 490 h340l-497 -490h-291z" />
<glyph unicode="&#xf4;" d="M98 629q0 268 188.5 456.5t456.5 188.5t455.5 -188.5t187.5 -456.5t-187 -456.5t-456 -188.5q-268 0 -456.5 188t-188.5 457zM285 1423l389 480h123l393 -480h-290l-164 195l-158 -195h-293zM334 629q0 -172 118.5 -290t290.5 -118q170 0 289 119t119 289t-119 289.5 t-289 119.5q-172 0 -290.5 -118.5t-118.5 -290.5z" />
<glyph unicode="&#xf5;" d="M98 629q0 268 188.5 456.5t456.5 188.5t455.5 -188.5t187.5 -456.5t-187 -456.5t-456 -188.5q-268 0 -456.5 188t-188.5 457zM334 629q0 -172 118.5 -290t290.5 -118q170 0 289 119t119 289t-119 289.5t-289 119.5q-172 0 -290.5 -118.5t-118.5 -290.5zM371 1444 q0 133 51 233q63 123 187 123q66 0 165 -59.5t95 -59.5q8 0 8 13l-2 32q-2 33 -2 68h235q0 -348 -239 -348q-72 0 -167 59.5t-93 59.5q-6 0 -4 -25q4 -55 4 -96h-238z" />
<glyph unicode="&#xf6;" d="M98 629q0 268 188.5 456.5t456.5 188.5t455.5 -188.5t187.5 -456.5t-187 -456.5t-456 -188.5q-268 0 -456.5 188t-188.5 457zM334 629q0 -172 118.5 -290t290.5 -118q170 0 289 119t119 289t-119 289.5t-289 119.5q-172 0 -290.5 -118.5t-118.5 -290.5zM422 1626 q0 63 46 109.5t109 46.5t109.5 -46.5t46.5 -109.5t-46 -108t-110 -45q-63 0 -109 45t-46 108zM803 1626q0 63 45 109.5t108 46.5t109.5 -46.5t46.5 -109.5t-46 -108t-110 -45q-63 0 -108 45t-45 108z" />
<glyph unicode="&#xf7;" horiz-adv-x="1325" d="M98 504v235h1227v-235h-1227zM530 186q0 78 51.5 130.5t129.5 52.5q76 0 129 -53.5t53 -129.5q0 -82 -50 -131t-132 -49t-131.5 49t-49.5 131zM530 1055q0 78 51.5 130t129.5 52q76 0 129 -53t53 -129q0 -82 -50 -131.5t-132 -49.5t-131.5 49.5t-49.5 131.5z" />
<glyph unicode="&#xf8;" d="M98 629q0 268 188.5 456.5t456.5 188.5t455.5 -188.5t187.5 -456.5t-187 -456.5t-456 -188.5q-268 0 -456.5 188t-188.5 457zM334 629q0 -172 118.5 -290t290.5 -118q170 0 289 119t119 289t-119 289.5t-289 119.5q-172 0 -290.5 -118.5t-118.5 -290.5z" />
<glyph unicode="&#xf9;" d="M98 629v647h236v-647q0 -172 118.5 -290t290.5 -118q170 0 289 119t119 289v647h235v-1288h-235v143q-178 -147 -408 -147q-268 0 -456.5 188t-188.5 457zM258 1903h334l424 -490h-285z" />
<glyph unicode="&#xfa;" d="M98 629v647h236v-647q0 -172 118.5 -290t290.5 -118q170 0 289 119t119 289v647h235v-1288h-235v143q-178 -147 -408 -147q-268 0 -456.5 188t-188.5 457zM467 1413l448 490h340l-497 -490h-291z" />
<glyph unicode="&#xfb;" d="M98 629v647h236v-647q0 -172 118.5 -290t290.5 -118q170 0 289 119t119 289v647h235v-1288h-235v143q-178 -147 -408 -147q-268 0 -456.5 188t-188.5 457zM285 1423l389 480h123l393 -480h-290l-164 195l-158 -195h-293z" />
<glyph unicode="&#xfc;" d="M98 629v647h236v-647q0 -172 118.5 -290t290.5 -118q170 0 289 119t119 289v647h235v-1288h-235v143q-178 -147 -408 -147q-268 0 -456.5 188t-188.5 457zM422 1626q0 63 46 109.5t109 46.5t109.5 -46.5t46.5 -109.5t-46 -108t-110 -45q-63 0 -109 45t-46 108zM803 1626 q0 63 45 109.5t108 46.5t109.5 -46.5t46.5 -109.5t-46 -108t-110 -45q-63 0 -108 45t-45 108z" />
<glyph unicode="&#xfe;" horiz-adv-x="1384" d="M98 -12v1493h236v-355q178 147 407 148q268 0 455.5 -187.5t187.5 -455.5t-187 -456.5t-456 -188.5q-229 0 -407 147v-145h-236zM334 631q0 -170 118.5 -289t288.5 -119t289 119t119 289t-119 288.5t-289 118.5t-288.5 -118.5t-118.5 -288.5z" />
<glyph unicode="&#xff;" horiz-adv-x="1497" d="M286 1276h297l305 -414l314 414h295l-490 -647v-641h-235v643zM418 1626q0 63 46 109.5t109 46.5t109.5 -46.5t46.5 -109.5t-46 -108t-110 -45q-63 0 -109 45t-46 108zM799 1626q0 63 45 109.5t108 46.5t109.5 -46.5t46.5 -109.5t-46 -108t-110 -45q-63 0 -108 45 t-45 108z" />
<glyph unicode="&#x152;" horiz-adv-x="2160" d="M98 629q0 268 188.5 456.5t456.5 188.5q215 0 387 -131q170 131 388 131q268 0 455.5 -188.5t187.5 -456.5v-117h-785q-23 -121 -86 -223q102 -68 228 -68q231 0 399 281l203 -121q-238 -397 -602 -397q-217 0 -390 131q-170 -131 -385 -131q-268 0 -456.5 188 t-188.5 457zM334 629q0 -172 118.5 -290t290.5 -118q124 0 226 68q-96 156 -97 340q0 184 97 340q-102 70 -226 69q-172 0 -290.5 -118.5t-118.5 -290.5zM1290 969q63 -102 86 -221h533q-39 129 -147.5 209.5t-243.5 80.5q-125 0 -228 -69z" />
<glyph unicode="&#x153;" horiz-adv-x="2160" d="M98 629q0 268 188.5 456.5t456.5 188.5q215 0 387 -131q170 131 388 131q268 0 455.5 -188.5t187.5 -456.5v-117h-785q-23 -121 -86 -223q102 -68 228 -68q231 0 399 281l203 -121q-238 -397 -602 -397q-217 0 -390 131q-170 -131 -385 -131q-268 0 -456.5 188 t-188.5 457zM334 629q0 -172 118.5 -290t290.5 -118q124 0 226 68q-96 156 -97 340q0 184 97 340q-102 70 -226 69q-172 0 -290.5 -118.5t-118.5 -290.5zM1290 969q63 -102 86 -221h533q-39 129 -147.5 209.5t-243.5 80.5q-125 0 -228 -69z" />
<glyph unicode="&#x178;" horiz-adv-x="1497" d="M286 1276h297l305 -414l314 414h295l-490 -647v-641h-235v643zM418 1626q0 63 46 109.5t109 46.5t109.5 -46.5t46.5 -109.5t-46 -108t-110 -45q-63 0 -109 45t-46 108zM799 1626q0 63 45 109.5t108 46.5t109.5 -46.5t46.5 -109.5t-46 -108t-110 -45q-63 0 -108 45 t-45 108z" />
<glyph unicode="&#x2c6;" horiz-adv-x="733" d="M-207 1423l389 480h123l393 -480h-290l-164 195l-158 -195h-293z" />
<glyph unicode="&#x2dc;" horiz-adv-x="636" d="M-123 1444q0 133 51 233q63 123 187 123q66 0 165 -59.5t95 -59.5q8 0 8 13l-2 32q-2 33 -2 68h235q0 -348 -239 -348q-72 0 -167 59.5t-93 59.5q-6 0 -4 -25q4 -55 4 -96h-238z" />
<glyph unicode="&#x2000;" horiz-adv-x="983" />
<glyph unicode="&#x2001;" horiz-adv-x="1966" />
<glyph unicode="&#x2002;" horiz-adv-x="983" />
<glyph unicode="&#x2003;" horiz-adv-x="1966" />
<glyph unicode="&#x2004;" horiz-adv-x="655" />
<glyph unicode="&#x2005;" horiz-adv-x="491" />
<glyph unicode="&#x2006;" horiz-adv-x="327" />
<glyph unicode="&#x2007;" horiz-adv-x="327" />
<glyph unicode="&#x2008;" horiz-adv-x="245" />
<glyph unicode="&#x2009;" horiz-adv-x="393" />
<glyph unicode="&#x200a;" horiz-adv-x="109" />
<glyph unicode="&#x2010;" horiz-adv-x="651" d="M98 535v235h553v-235h-553z" />
<glyph unicode="&#x2011;" horiz-adv-x="651" d="M98 535v235h553v-235h-553z" />
<glyph unicode="&#x2012;" horiz-adv-x="651" d="M98 535v235h553v-235h-553z" />
<glyph unicode="&#x2013;" horiz-adv-x="1112" d="M98 535v235h1014v-235h-1014z" />
<glyph unicode="&#x2014;" horiz-adv-x="2136" d="M98 535v235h2038v-235h-2038z" />
<glyph unicode="&#x2018;" horiz-adv-x="385" d="M98 559v340q0 135 47 203q55 80 240 178v-256q-39 -25 -47 -53q-4 -14 -4 -72v-340h-236z" />
<glyph unicode="&#x2019;" horiz-adv-x="385" d="M98 518v256q37 25 45 51q6 18 7 76v338h235v-338q0 -135 -49 -205q-57 -82 -238 -178z" />
<glyph unicode="&#x201a;" horiz-adv-x="385" d="M98 -59q35 35 45 73q6 25 7 88v299h235v-299q0 -121 -47 -200q-63 -106 -240 -226v265z" />
<glyph unicode="&#x201c;" horiz-adv-x="589" d="M98 559v340q0 135 47 203q55 80 240 178v-137q59 59 205 137v-256q-39 -25 -47 -53q-4 -14 -4 -72v-340h-441z" />
<glyph unicode="&#x201d;" horiz-adv-x="589" d="M98 518v256q37 25 45 51q6 18 7 76v338h440v-338q0 -135 -49 -205q-57 -82 -238 -178v137q-61 -59 -205 -137z" />
<glyph unicode="&#x201e;" horiz-adv-x="589" d="M98 -59q35 35 45 73q6 25 7 88v299h440v-299q0 -121 -47 -200q-63 -106 -240 -226v174q-68 -82 -205 -174v265z" />
<glyph unicode="&#x2022;" horiz-adv-x="1024" d="M98 629q0 193 134.5 327t326.5 134q193 0 329 -134t136 -327q0 -195 -135 -330t-330 -135t-328 135t-133 330z" />
<glyph unicode="&#x2026;" horiz-adv-x="1681" d="M98 160q0 63 45 109t109 46q63 0 109.5 -46t46.5 -109t-46.5 -108.5t-109.5 -45.5t-108.5 45t-45.5 109zM780 160q0 63 45 109t109 46q63 0 109.5 -46t46.5 -109t-46.5 -108.5t-109.5 -45.5t-108.5 45t-45.5 109zM1372 160q0 63 45 109t109 46q63 0 109 -46t46 -109 t-46 -108.5t-109 -45.5t-108.5 45t-45.5 109z" />
<glyph unicode="&#x202f;" horiz-adv-x="393" />
<glyph unicode="&#x2039;" horiz-adv-x="503" d="M98 602v98l406 547v-399l-148 -197l148 -196v-400z" />
<glyph unicode="&#x203a;" horiz-adv-x="503" d="M98 55v400l146 196l-146 197v399l406 -547v-98z" />
<glyph unicode="&#x205f;" horiz-adv-x="491" />
<glyph unicode="&#x2122;" horiz-adv-x="1452" d="M98 879v520h256v-80h264v-256h-264v-184q49 0 49 116h228q-10 -98 -33 -219q-31 -72 -95.5 -115t-144.5 -43q-109 0 -184.5 76t-75.5 185zM670 618v781h256q72 0 133 -37q61 37 133 37q109 0 184.5 -77t75.5 -185v-519h-256v519q-4 0 -27 2h-22v-521h-174v521h-47v-521 h-256z" />
<glyph unicode="&#xe000;" horiz-adv-x="1280" d="M0 0v1280h1280v-1280h-1280z" />
</font>
</defs>
</svg>
